<svg width="373" height="376" viewBox="0 0 373 376" fill="none" xmlns="http://www.w3.org/2000/svg">
<path fill-rule="evenodd" clip-rule="evenodd" d="M127.621 268.911C194.466 266.853 248.072 207.455 248.072 134.483C248.072 124.88 247.144 115.513 245.379 106.48C246.57 106.444 247.765 106.425 248.965 106.425C317.468 106.425 373.001 166.635 373.001 240.908C373.001 315.181 317.468 375.391 248.965 375.391C189.318 375.391 139.505 329.743 127.621 268.911ZM127.621 268.911C126.43 268.947 125.235 268.966 124.036 268.966C55.5328 268.966 0 208.756 0 134.483C0 60.21 55.5328 0 124.036 0C183.682 0 233.496 45.6477 245.379 106.48C178.534 108.538 124.929 167.935 124.929 240.908C124.929 250.511 125.857 259.878 127.621 268.911Z" fill="#5C45FD"/>
<circle cx="187" cy="188" r="29" fill="#5C45FD"/>
</svg>
